<svg xmlns="http://www.w3.org/2000/svg" width="58" height="58" viewBox="0 0 58 58"><g transform="translate(-410 -3011)"><circle cx="29" cy="29" r="29" transform="translate(410 3011)" fill="rgba(255,255,255,0.9)"/><path d="M68.919-39.331l-8.436,8.649a1.3,1.3,0,0,1-1.864,0,1.375,1.375,0,0,1,0-1.911L64.8-38.935H46.624a1.335,1.335,0,0,1-1.318-1.351,1.335,1.335,0,0,1,1.318-1.351H64.8L58.619-47.98a1.375,1.375,0,0,1,0-1.911,1.3,1.3,0,0,1,.932-.4,1.3,1.3,0,0,1,.932.4l8.436,8.649a1.375,1.375,0,0,1,0,1.911Zm0,0" transform="matrix(-1, 0, 0, -1, 496.306, 2999.713)" fill="#777"/></g></svg>