<svg xmlns="http://www.w3.org/2000/svg" width="70" height="70" viewBox="0 0 70 70"><rect width="70" height="70" fill="#fff" opacity="0"/><g transform="matrix(-1, 0, 0, -1, 66.87, 59.917)"><path d="M60.84,27.68h-44a1.375,1.375,0,0,1-1.382-1.367v-1.2h-8.6A1.527,1.527,0,0,1,5.319,23.6S3.143,11.1,3.156,11.022l-1.774-.258A1.374,1.374,0,0,1,0,9.4V1.366A1.374,1.374,0,0,1,1.382,0H7.6a8.41,8.41,0,0,0,8.116,6.112A8.41,8.41,0,0,0,23.829,0H40.705a8.409,8.409,0,0,0,8.116,6.112A8.41,8.41,0,0,0,56.937,0h3.9a1.374,1.374,0,0,1,1.382,1.366V26.313A1.374,1.374,0,0,1,60.84,27.68Z" transform="translate(0 7.584)" fill="#f96c21" stroke="#231f20" stroke-linejoin="bevel" stroke-width="2"/><rect width="62.223" height="3.822" transform="translate(0 32.311)" fill="#fff" stroke="#231f20" stroke-miterlimit="10" stroke-width="2"/><path d="M62.222,12.54a1.375,1.375,0,0,1-1.382,1.367H2.763A1.375,1.375,0,0,1,1.382,12.54L0,0H62.222Z" transform="translate(0 36.134)" fill="#94471f" stroke="#231f20" stroke-linejoin="bevel" stroke-width="2"/><path d="M10.838,5.363A5.392,5.392,0,0,0,5.419,0,5.392,5.392,0,0,0,0,5.363a5.391,5.391,0,0,0,5.419,5.361A5.391,5.391,0,0,0,10.838,5.363Z" transform="translate(10.187)" fill="#fff" stroke="#231f20" stroke-miterlimit="10" stroke-width="2"/><path d="M4.892,2.421A2.446,2.446,0,0,0,0,2.421,2.434,2.434,0,0,0,2.446,4.84,2.434,2.434,0,0,0,4.892,2.421Z" transform="translate(13.16 2.943)" fill="#fff" stroke="#231f20" stroke-miterlimit="10" stroke-width="2"/><path d="M10.838,5.363A5.391,5.391,0,0,0,5.42,0,5.392,5.392,0,0,0,0,5.363a5.391,5.391,0,0,0,5.42,5.361A5.391,5.391,0,0,0,10.838,5.363Z" transform="translate(43.564)" fill="#fff" stroke="#231f20" stroke-miterlimit="10" stroke-width="2"/><path d="M4.892,2.421A2.446,2.446,0,0,0,0,2.421,2.434,2.434,0,0,0,2.446,4.84,2.433,2.433,0,0,0,4.892,2.421Z" transform="translate(46.538 2.943)" fill="#fff" stroke="#231f20" stroke-miterlimit="10" stroke-width="2"/><path d="M1.12,9.279,0,0H7.558V9.279Z" transform="translate(7.543 19.304)" fill="#fff" stroke="#231f20" stroke-miterlimit="10" stroke-width="2"/><rect width="7.453" height="9.279" transform="translate(18.609 19.304)" fill="#fff" stroke="#231f20" stroke-miterlimit="10" stroke-width="2"/><rect width="7.181" height="5.197" transform="translate(5.707 40.216)" fill="#fff" stroke="#231f20" stroke-miterlimit="10" stroke-width="2"/><rect width="7.181" height="5.197" transform="translate(16.877 40.216)" fill="#fff" stroke="#231f20" stroke-miterlimit="10" stroke-width="2"/><rect width="7.181" height="5.197" transform="translate(28.047 40.216)" fill="#fff" stroke="#231f20" stroke-miterlimit="10" stroke-width="2"/><rect width="7.182" height="5.197" transform="translate(39.217 40.216)" fill="#fff" stroke="#231f20" stroke-miterlimit="10" stroke-width="2"/><rect width="7.181" height="5.197" transform="translate(50.388 40.216)" fill="#fff" stroke="#231f20" stroke-miterlimit="10" stroke-width="2"/><rect width="7.453" height="9.279" transform="translate(39.614 19.304)" fill="#fff" stroke="#231f20" stroke-miterlimit="10" stroke-width="2"/><rect width="7.453" height="9.279" transform="translate(50.117 19.304)" fill="#fff" stroke="#231f20" stroke-miterlimit="10" stroke-width="2"/><rect width="6.707" height="16.712" transform="translate(29.484 11.871)" fill="#fff" stroke="#231f20" stroke-miterlimit="10" stroke-width="2"/></g></svg>