<svg xmlns="http://www.w3.org/2000/svg" width="70" height="70" viewBox="0 0 70 70"><g transform="translate(-1299 -2375.98)"><rect width="70" height="70" transform="translate(1299 2375.98)" fill="#fff" opacity="0"/><g transform="translate(1311.246 2384.165)"><line x1="11.592" y2="24.359" transform="translate(4.435 29.105)" fill="#231f20" stroke="#94471f" stroke-miterlimit="10" stroke-width="3"/><line x2="11.592" y2="24.359" transform="translate(29.936 29.105)" fill="#231f20" stroke="#94471f" stroke-miterlimit="10" stroke-width="3"/><path d="M777.762,1343.985a22.8,22.8,0,0,0,22.981-22.615H754.78A22.8,22.8,0,0,0,777.762,1343.985Z" transform="translate(-754.78 -1309.424)" fill="#f96c21" stroke="#231f20" stroke-linejoin="bevel" stroke-width="2"/><path d="M800.722,1311.564c0,5.9-10.256,10.68-22.906,10.68s-22.906-4.781-22.906-10.68,10.255-10.679,22.906-10.679S800.722,1305.667,800.722,1311.564Z" transform="translate(-754.834 -1300.885)" fill="#fff" stroke="#231f20" stroke-miterlimit="10" stroke-width="2"/><line x2="25.885" transform="translate(9.847 42.091)" fill="#231f20" stroke="#94471f" stroke-miterlimit="10" stroke-width="3"/><line x2="35.891" transform="translate(5.137 3.987)" fill="none" stroke="#231f20" stroke-miterlimit="10" stroke-width="2"/><line x2="43.914" transform="translate(1.421 8.348)" fill="none" stroke="#231f20" stroke-miterlimit="10" stroke-width="2"/><line x2="43.914" transform="translate(1.421 12.71)" fill="none" stroke="#231f20" stroke-miterlimit="10" stroke-width="2"/><line x2="37.036" transform="translate(4.493 17.071)" fill="none" stroke="#231f20" stroke-miterlimit="10" stroke-width="2"/></g></g></svg>