<svg xmlns="http://www.w3.org/2000/svg" width="70.868" height="70" viewBox="0 0 70.868 70"><g transform="translate(-568 -2371.192)"><rect width="70" height="70" transform="translate(568 2371.192)" fill="#fff" opacity="0"/><g transform="translate(570.621 2383.867)"><path d="M886.639,1099.229h6.725s2.947.4,4.421-4.41" transform="translate(-830.495 -1059.586)" fill="#fff" stroke="#231f20" stroke-miterlimit="10" stroke-width="2"/><path d="M804.3,1065.389a4.813,4.813,0,0,1,4.861-4.763h36.556a18.091,18.091,0,0,0-13.5-5.994h-23.58a17.8,17.8,0,0,0-17.979,17.619,17.3,17.3,0,0,0,3.394,10.3H846.8a17.239,17.239,0,0,0,3.263-12.4h-40.9A4.813,4.813,0,0,1,804.3,1065.389Z" transform="translate(-790.654 -1042.905)" fill="#f96c21" stroke="#231f20" stroke-linejoin="bevel" stroke-width="2"/><path d="M818.846,1064.879a4.764,4.764,0,1,0,0,9.526h40.9a17.38,17.38,0,0,0-4.343-9.526Z" transform="translate(-800.338 -1047.159)" fill="#fff" stroke="#231f20" stroke-miterlimit="10" stroke-width="2"/><ellipse cx="4.716" cy="4.621" rx="4.716" ry="4.621" transform="translate(8.931 35.233)" fill="#94471f" stroke="#231f20" stroke-linejoin="bevel" stroke-width="2"/><ellipse cx="4.716" cy="4.621" rx="4.716" ry="4.621" transform="translate(41.353 35.233)" fill="#94471f" stroke="#231f20" stroke-linejoin="bevel" stroke-width="2"/><line x1="5.895" y2="9.526" transform="translate(26.174 17.721)" fill="none" stroke="#231f20" stroke-miterlimit="10" stroke-width="2"/><line x1="5.895" y2="9.526" transform="translate(42.168 17.721)" fill="none" stroke="#231f20" stroke-miterlimit="10" stroke-width="2"/><line y1="4.602" transform="translate(17.98 7.124)" fill="none" stroke="#231f20" stroke-miterlimit="10" stroke-width="2.963"/><line y1="4.602" transform="translate(41.353 7.124)" fill="none" stroke="#231f20" stroke-miterlimit="10" stroke-width="2.963"/><path d="M845.635,1038.531a3.988,3.988,0,0,1-4.028,3.947h-28.3a3.989,3.989,0,0,1-4.029-3.947h0a3.989,3.989,0,0,1,4.029-3.947h28.3a3.988,3.988,0,0,1,4.028,3.947Z" transform="translate(-798.386 -1034.584)" fill="none" stroke="#231f20" stroke-miterlimit="10" stroke-width="2"/><line x2="30" transform="translate(17.98 3.675)" fill="none" stroke="#231f20" stroke-miterlimit="10" stroke-width="2"/></g></g></svg>