<svg xmlns="http://www.w3.org/2000/svg" width="36" height="36" viewBox="0 0 36 36"><rect width="36" height="36" fill="#d59b45" opacity="0"/><rect width="24" height="24" transform="translate(6 6)" fill="#fff" opacity="0"/><path d="M15.34,3.46a1.2,1.2,0,1,0,.848.351A1.2,1.2,0,0,0,15.34,3.46Zm4.6,2.42a7.587,7.587,0,0,0-.46-2.43,4.94,4.94,0,0,0-1.16-1.77A4.7,4.7,0,0,0,16.55.53,7.3,7.3,0,0,0,14.12.06C13.06,0,12.72,0,10,0S6.94,0,5.88.06A7.3,7.3,0,0,0,3.45.53,4.78,4.78,0,0,0,1.68,1.68,4.7,4.7,0,0,0,.53,3.45,7.3,7.3,0,0,0,.06,5.88C0,6.94,0,7.28,0,10s0,3.06.06,4.12a7.3,7.3,0,0,0,.47,2.43,4.7,4.7,0,0,0,1.15,1.77,4.78,4.78,0,0,0,1.77,1.15,7.3,7.3,0,0,0,2.43.47C6.94,20,7.28,20,10,20s3.06,0,4.12-.06a7.3,7.3,0,0,0,2.43-.47,4.7,4.7,0,0,0,1.77-1.15,4.851,4.851,0,0,0,1.16-1.77,7.587,7.587,0,0,0,.46-2.43c0-1.06.06-1.4.06-4.12S20,6.94,19.94,5.88ZM18.14,14a5.609,5.609,0,0,1-.34,1.86,3.06,3.06,0,0,1-.75,1.15,3.191,3.191,0,0,1-1.15.75,5.609,5.609,0,0,1-1.86.34c-1,.05-1.37.06-4,.06s-3,0-4-.06a5.73,5.73,0,0,1-1.94-.3A3.269,3.269,0,0,1,3,17.05a3,3,0,0,1-.74-1.15,5.54,5.54,0,0,1-.4-1.9c0-1-.06-1.37-.06-4s0-3,.06-4a5.54,5.54,0,0,1,.35-1.9A3,3,0,0,1,3,3a3.14,3.14,0,0,1,1.1-.8A5.73,5.73,0,0,1,6,1.86c1,0,1.37-.06,4-.06s3,0,4,.06a5.61,5.61,0,0,1,1.86.34,3.06,3.06,0,0,1,1.19.8,3.059,3.059,0,0,1,.75,1.1A5.609,5.609,0,0,1,18.14,6c.05,1,.06,1.37.06,4S18.19,13,18.14,14ZM10,4.87a5.12,5.12,0,1,0,1.968.385A5.13,5.13,0,0,0,10,4.87Zm0,8.46a3.331,3.331,0,1,1,1.274-.253A3.33,3.33,0,0,1,10,13.33Z" transform="translate(8 8)" fill="#fff"/></svg>