<svg xmlns="http://www.w3.org/2000/svg" width="28" height="28" viewBox="0 0 28 28"><rect width="28" height="28" fill="#e50025" opacity="0"/><path d="M7.092,19.643l3.724-5.65c1.751-2.657,4.616-2.657,6.367,0l3.724,5.65c2.561,3.885.463,5.47-4.649,3.527l-1.538-.586a2.329,2.329,0,0,0-1.428,0l-1.55.588C6.63,25.113,4.532,23.521,7.092,19.643Z" fill="none" stroke="#242424" stroke-linecap="round" stroke-linejoin="round" stroke-width="2"/><path d="M15.951,7.347a1.978,1.978,0,0,1-3.9,0,3.458,3.458,0,0,1,1.11-2.982,1.145,1.145,0,0,1,1.681,0A3.459,3.459,0,0,1,15.951,7.347Z" fill="none" stroke="#242424" stroke-width="2"/><path d="M15.951,7.347a1.978,1.978,0,0,1-3.9,0,3.458,3.458,0,0,1,1.11-2.982,1.145,1.145,0,0,1,1.681,0A3.459,3.459,0,0,1,15.951,7.347Z" fill="none" stroke="#242424" stroke-width="2"/><path d="M15.951,7.347a1.978,1.978,0,0,1-3.9,0,3.458,3.458,0,0,1,1.11-2.982,1.145,1.145,0,0,1,1.681,0A3.459,3.459,0,0,1,15.951,7.347Z" fill="none" stroke="#242424" stroke-width="2"/><path d="M22.951,10.347a1.978,1.978,0,0,1-3.9,0,3.458,3.458,0,0,1,1.11-2.982,1.145,1.145,0,0,1,1.681,0A3.459,3.459,0,0,1,22.951,10.347Z" fill="none" stroke="#242424" stroke-width="2"/><path d="M8.951,10.347a1.978,1.978,0,0,1-3.9,0,3.458,3.458,0,0,1,1.11-2.982,1.145,1.145,0,0,1,1.681,0A3.459,3.459,0,0,1,8.951,10.347Z" fill="none" stroke="#242424" stroke-width="2"/><path d="M8.951,10.347a1.978,1.978,0,0,1-3.9,0,3.458,3.458,0,0,1,1.11-2.982,1.145,1.145,0,0,1,1.681,0A3.459,3.459,0,0,1,8.951,10.347Z" fill="none" stroke="#242424" stroke-width="2"/><path d="M8.951,10.347a1.978,1.978,0,0,1-3.9,0,3.458,3.458,0,0,1,1.11-2.982,1.145,1.145,0,0,1,1.681,0A3.459,3.459,0,0,1,8.951,10.347Z" fill="none" stroke="#242424" stroke-width="2"/></svg>