<svg xmlns="http://www.w3.org/2000/svg" width="24" height="24" viewBox="0 0 24 24"><g transform="translate(-523 -3025)"><rect width="24" height="24" transform="translate(523 3025)" fill="#d59b45" opacity="0"/><g transform="translate(-30 -16)"><path d="M13685,23119a1,1,0,0,1-1-1v-1h4v1a1,1,0,0,1-1,1Zm-10,0a1,1,0,0,1-1-1v-1h4v1a1,1,0,0,1-1,1Zm-1-2a2.055,2.055,0,0,1-2-2.105V23108h-1a1,1,0,0,1-1-1v-2a2,2,0,0,1,2-2v-1.787a4.108,4.108,0,0,1,4-4.213h10a4.111,4.111,0,0,1,4,4.213V23103a2,2,0,0,1,2,2v2a1,1,0,0,1-1,1h-1v6.893a2.055,2.055,0,0,1-2,2.105Zm11-3.5a1.5,1.5,0,1,0,1.5-1.5A1.5,1.5,0,0,0,13685,23113.5Zm-11,0a1.5,1.5,0,1,0,1.5-1.5A1.5,1.5,0,0,0,13674,23113.5Zm0-10.252v5.627a1.069,1.069,0,0,0,1,1.121h12a1.064,1.064,0,0,0,1-1.121v-5.627a2.137,2.137,0,0,0-2-2.252h-10A2.141,2.141,0,0,0,13674,23103.25Zm4-4.248a1,1,0,0,0,1,1h4a1,1,0,0,0,0-2h-4A1,1,0,0,0,13678,23099Z" transform="translate(-13116 -20055)" stroke="rgba(0,0,0,0)" stroke-miterlimit="10" stroke-width="1"/></g></g></svg>