<svg xmlns="http://www.w3.org/2000/svg" width="24" height="24" viewBox="0 0 24 24"><g transform="translate(-1712 -1214)"><rect width="24" height="24" transform="translate(1712 1214)" fill="#d59b45" opacity="0"/><g transform="translate(0 -26)"><path d="M14,0H4A4,4,0,0,0,0,4V16a2,2,0,0,0,2,2H16a2,2,0,0,0,2-2V4a4,4,0,0,0-4-4M7,1h4a1,1,0,0,1,0,2H7A1,1,0,0,1,7,1M3.5,16A1.5,1.5,0,1,1,5,14.5,1.5,1.5,0,0,1,3.5,16m11,0A1.5,1.5,0,1,1,16,14.5,1.5,1.5,0,0,1,14.5,16M16,10a1,1,0,0,1-1,1H3a1,1,0,0,1-1-1V6A2,2,0,0,1,4,4H14a2,2,0,0,1,2,2Z" transform="translate(1715 1241)"/><path d="M15.479,22H1.345a1.011,1.011,0,0,1-.659-1.707l.659-.707A1.8,1.8,0,0,1,2.664,19h11.5a1.8,1.8,0,0,1,1.317.586l.659.707A1.011,1.011,0,0,1,15.479,22" transform="translate(1715.588 1241)"/></g></g></svg>