<svg xmlns="http://www.w3.org/2000/svg" width="28" height="28" viewBox="0 0 28 28"><rect width="28" height="28" fill="#e50025" opacity="0"/><g transform="translate(0 1)"><path d="M15.488,2.417c.539.136,1.349,1.482,1.236,3.116-.061.907-.691,3.152-2.838,3.152a1.835,1.835,0,0,1-1.876-1.1,2.685,2.685,0,0,1,.074-1.974A1.187,1.187,0,0,1,14.221,5.4" fill="none" stroke="#242424" stroke-linecap="round" stroke-linejoin="round" stroke-width="2"/><path d="M11.345,22.695a1.7,1.7,0,0,1-.94-1.835c0-1.537,1.683-2.783,3.76-2.783s3.759,1.246,3.759,2.783a2.535,2.535,0,0,1-1.259,2.078" transform="translate(0 -2)" fill="none" stroke="#242424" stroke-linecap="round" stroke-linejoin="round" stroke-width="2"/><path d="M16.617,23.392A2.534,2.534,0,0,1,14.164,26a2.614,2.614,0,0,1,0-5.218A2.536,2.536,0,0,1,16.617,23.392Z" transform="translate(0 -2)" fill="none" stroke="#242424" stroke-linecap="round" stroke-linejoin="round" stroke-width="2"/><path d="M11.222,21.58c-4.741-.473-8.711-5.321-8.173-9.618A11.149,11.149,0,0,1,14,2a10.9,10.9,0,0,1,10.952,9.963c.483,4.1-2.779,8.512-7.846,9.776" fill="none" stroke="#242424" stroke-linecap="round" stroke-linejoin="round" stroke-width="2"/></g></svg>