<svg xmlns="http://www.w3.org/2000/svg" width="28" height="28" viewBox="0 0 28 28"><rect width="28" height="28" fill="#e50025" opacity="0"/><g transform="translate(0.065 -0.689)"><line x2="19.495" transform="translate(5.44 11.855)" fill="none" stroke="#242424" stroke-linecap="round" stroke-linejoin="round" stroke-width="2"/><path d="M15.588,23.18a6.885,6.885,0,0,0,4.448-5.063,1.662,1.662,0,0,0,.674.145,1.941,1.941,0,0,0,0-3.869,1.5,1.5,0,0,0-.156.017c-.041-4.871-3.19-8.722-7.781-8.722S5.028,9.634,4.989,14.423a1.66,1.66,0,0,0-.266-.029,1.941,1.941,0,0,0,0,3.869,1.664,1.664,0,0,0,.76-.19,7.106,7.106,0,0,0,4.776,5.164A7.655,7.655,0,0,0,15.588,23.18Z" transform="translate(0 0)" fill="none" stroke="#242424" stroke-linecap="round" stroke-linejoin="round" stroke-width="2"/><path d="M20.642,13.439a9.931,9.931,0,0,1-.609,3.925" transform="translate(-0.104 0.841)" fill="none" stroke="#242424" stroke-linecap="round" stroke-linejoin="round" stroke-width="2"/><path d="M5.056,13.117a13.129,13.129,0,0,0,.653,4.54" transform="translate(0 0.847)" fill="none" stroke="#242424" stroke-linecap="round" stroke-linejoin="round" stroke-width="2"/></g></svg>