<svg xmlns="http://www.w3.org/2000/svg" width="24" height="24" viewBox="0 0 24 24"><g transform="translate(-459 -3025)"><rect width="24" height="24" transform="translate(459 3025)" fill="#d59b45" opacity="0"/><g transform="translate(-20.5 -4.383)"><path d="M5.03,1.357A1.11,1.11,0,0,0,4.276,1a1.181,1.181,0,0,0-.785.362L1.682,3.021a2.468,2.468,0,0,0-.664,1.591A7.19,7.19,0,0,0,1.6,7.8a20.632,20.632,0,0,0,3.718,6.109A22.9,22.9,0,0,0,12.935,19.8a11.308,11.308,0,0,0,4.027,1.192c.077.005.16.005.238.005a3.308,3.308,0,0,0,2.124-.575,9.226,9.226,0,0,0,1.444-1.876s.527-1.075-.005-1.595l-2.845-2.808M5.03,1.357l.015.015M5.03,1.357l.015.015m0,0c.315.29.614.591.929.912.16.163.325.326.491.494l1.41,1.391a.965.965,0,0,1,0,1.58c-.15.148-.294.3-.444.438a4.483,4.483,0,0,1-.542.5c-.01.01-.021.015-.026.025a1.03,1.03,0,0,0-.269,1.157m0,0,.015.046m-.015-.046.015.046m0,0A11.142,11.142,0,0,0,8.277,10.6l.005.005a18.865,18.865,0,0,0,4.585,4.117,7.073,7.073,0,0,0,.635.341c.186.092.361.178.511.27.021.01.041.026.062.036a1.131,1.131,0,0,0,.511.127,1.109,1.109,0,0,0,.785-.352l1.012-1a1.174,1.174,0,0,1,.78-.382,1.056,1.056,0,0,1,.744.372m0,0,.01.01m-.01-.01.01.01" transform="translate(480.5 3030.383)" fill="none" stroke="#111" stroke-linecap="round" stroke-linejoin="round" stroke-width="2"/></g></g></svg>