<svg xmlns="http://www.w3.org/2000/svg" width="24" height="24" viewBox="0 0 24 24">
  <g id="star-solid-icon" transform="translate(-748 -1316)">
    <rect id="가이드" width="24" height="24" transform="translate(748 1316)" fill="rgba(213,155,69,0.3)" opacity="0"/>
    <path id="star-solid" d="M34.123.633a1.078,1.078,0,0,0-1.963,0L29.968,5.283l-4.895.745a1.1,1.1,0,0,0-.876.763,1.156,1.156,0,0,0,.269,1.149l3.552,3.624-.839,5.122a1.145,1.145,0,0,0,.44,1.1,1.071,1.071,0,0,0,1.152.081l4.373-2.408,4.373,2.408a1.064,1.064,0,0,0,1.152-.081,1.148,1.148,0,0,0,.44-1.1l-.842-5.122L41.82,7.941a1.148,1.148,0,0,0,.269-1.149,1.1,1.1,0,0,0-.876-.763l-4.9-.745Z" transform="translate(726.856 1319)" fill="#d59b45"/>
  </g>
</svg>
