<svg xmlns="http://www.w3.org/2000/svg" width="24" height="24" viewBox="0 0 24 24"><g transform="translate(-399 -3025)"><rect width="24" height="24" transform="translate(399 3025)" fill="#d59b45" opacity="0"/><path d="M13648,23101h0a41.311,41.311,0,0,1-4-4.133c-1.824-2.18-4-5.348-4-8.043a8,8,0,0,1,16,0c0,2.7-2.176,5.863-4,8.043a41.711,41.711,0,0,1-4,4.133h0Zm-.01-14.34a2.272,2.272,0,1,0,2.324,2.27A2.3,2.3,0,0,0,13647.988,23086.66Z" transform="translate(-13237.002 -20054)" fill="none" stroke="#111" stroke-linejoin="round" stroke-width="2"/></g></svg>