<svg xmlns="http://www.w3.org/2000/svg" width="36" height="36" viewBox="0 0 36 36"><rect width="36" height="36" fill="#d59b45" opacity="0"/><rect width="24" height="24" transform="translate(6 6)" fill="#fff" opacity="0"/><g transform="translate(8 8)"><circle cx="10" cy="10" r="10" fill="#fff"/><path d="M14.988,3.959a6.094,6.094,0,0,0-.579-2.8A1.836,1.836,0,0,0,13.315.477,46.708,46.708,0,0,0,7.992.267a46.761,46.761,0,0,0-5.3.2,1.786,1.786,0,0,0-.929.5,3.662,3.662,0,0,0-.7,2.342,34.98,34.98,0,0,0,0,4.4,6.889,6.889,0,0,0,.191,1.358,2.184,2.184,0,0,0,.452.923,1.784,1.784,0,0,0,.948.529,26.941,26.941,0,0,0,4.134.224,63.418,63.418,0,0,0,6.487-.19,1.794,1.794,0,0,0,.973-.529,1.713,1.713,0,0,0,.388-.679,7.625,7.625,0,0,0,.331-2.308C14.988,6.661,14.988,4.367,14.988,3.959ZM6.555,7.448v-4.2L10.32,5.358C9.264,5.982,7.872,6.688,6.555,7.448Z" transform="translate(2.009 4.741)" fill="#242424"/></g></svg>