<svg xmlns="http://www.w3.org/2000/svg" width="28" height="28" viewBox="0 0 28 28"><rect width="28" height="28" fill="#e50025" opacity="0"/><path d="M15.045,2.511h-2.09A4.19,4.19,0,0,0,8.778,6.689v.939a5.2,5.2,0,0,0,2.871-1.671,5.212,5.212,0,0,0,7.552.3A4.18,4.18,0,0,0,15.045,2.511Z" fill="none" stroke="#242424" stroke-linecap="round" stroke-linejoin="round" stroke-width="2"/><path d="M11.65,5.957A5.207,5.207,0,0,1,8.778,7.628V9.822a5.222,5.222,0,0,0,10.444,0V6.689a4.11,4.11,0,0,0-.022-.432,5.208,5.208,0,0,1-7.55-.3Z" fill="none" stroke="#242424" stroke-linecap="round" stroke-linejoin="round" stroke-width="2"/><path d="M14,15.045a9.4,9.4,0,0,0-9.4,9.4V25.49H23.4V24.444A9.4,9.4,0,0,0,14,15.045Z" fill="none" stroke="#242424" stroke-linecap="round" stroke-linejoin="round" stroke-width="2"/></svg>