<svg xmlns="http://www.w3.org/2000/svg" width="32" height="32" viewBox="0 0 32 32"><g transform="translate(-0.021 -0.021)"><rect width="32" height="32" transform="translate(0.021 0.021)" fill="#e50025" opacity="0"/><path d="M23.115,15.753a6.2,6.2,0,0,1,3.034-5.222A6.633,6.633,0,0,0,21.013,7.8c-2.19-.216-4.275,1.262-5.382,1.262s-2.825-1.227-4.638-1.191a6.9,6.9,0,0,0-5.817,3.439c-2.477,4.2-.636,10.432,1.783,13.84,1.18,1.668,2.585,3.542,4.432,3.474C13.174,28.56,13.847,27.5,16,27.5s2.757,1.124,4.641,1.1c1.913-.039,3.129-1.707,4.3-3.376a15.079,15.079,0,0,0,1.949-3.909,6.081,6.081,0,0,1-3.772-5.56" transform="translate(0.577 1.123)" fill="#fff"/><path d="M18.14,6.383A5.936,5.936,0,0,0,19.6,2a6.342,6.342,0,0,0-4.137,2.078A5.675,5.675,0,0,0,13.973,8.33,5.264,5.264,0,0,0,18.14,6.383" transform="translate(2.012 0.289)" fill="#fff"/></g></svg>